<?xml version="1.0" encoding="UTF-8"?>
<svg width="476" height="502" viewBox="0 0 476 502" xmlns="http://www.w3.org/2000/svg">
  <desc>Generated by PNG2SVG Gaussian Splatting Pipeline</desc>
  <defs>
    <style>
      .splat { mix-blend-mode: normal; }
    </style>
  </defs>

  <ellipse id="splat_0" cx="157.95" cy="254.99" rx="9.99" ry="9.98" fill="rgb(116,101,133)" fill-opacity="0.702" transform="rotate(45.00 157.95 254.99)" class="splat"/>
  <ellipse id="splat_1" cx="340.05" cy="169.05" rx="9.99" ry="9.98" fill="rgb(131,102,126)" fill-opacity="0.702" transform="rotate(135.00 340.05 169.05)" class="splat"/>
  <ellipse id="splat_2" cx="147.05" cy="96.95" rx="10.00" ry="9.97" fill="rgb(145,148,172)" fill-opacity="0.702" transform="rotate(135.01 147.05 96.95)" class="splat"/>
  <ellipse id="splat_3" cx="158.05" cy="203.05" rx="10.00" ry="9.97" fill="rgb(90,141,188)" fill-opacity="0.707" transform="rotate(135.00 158.05 203.05)" class="splat"/>
  <ellipse id="splat_4" cx="208.05" cy="251.95" rx="10.00" ry="9.97" fill="rgb(135,92,129)" fill-opacity="0.721" transform="rotate(135.00 208.05 251.95)" class="splat"/>
  <ellipse id="splat_5" cx="280.95" cy="186.05" rx="10.00" ry="9.97" fill="rgb(99,89,140)" fill-opacity="0.710" transform="rotate(45.00 280.95 186.05)" class="splat"/>
  <ellipse id="splat_6" cx="379.99" cy="450.70" rx="10.00" ry="9.97" fill="rgb(143,67,60)" fill-opacity="0.702" transform="rotate(45.00 379.99 450.70)" class="splat"/>
  <ellipse id="splat_7" cx="283.05" cy="237.95" rx="10.00" ry="9.97" fill="rgb(140,116,159)" fill-opacity="0.715" transform="rotate(135.00 283.05 237.95)" class="splat"/>
  <ellipse id="splat_8" cx="123.05" cy="187.95" rx="10.00" ry="9.97" fill="rgb(100,84,92)" fill-opacity="0.713" transform="rotate(45.00 123.05 187.95)" class="splat"/>
  <ellipse id="splat_9" cx="179.05" cy="242.95" rx="10.00" ry="9.97" fill="rgb(110,104,149)" fill-opacity="0.721" transform="rotate(135.00 179.05 242.95)" class="splat"/>
  <ellipse id="splat_10" cx="201.05" cy="262.05" rx="10.00" ry="9.97" fill="rgb(127,81,120)" fill-opacity="0.718" transform="rotate(-135.00 201.05 262.05)" class="splat"/>
  <ellipse id="splat_11" cx="263.95" cy="155.95" rx="10.00" ry="9.97" fill="rgb(139,135,162)" fill-opacity="0.721" transform="rotate(45.00 263.95 155.95)" class="splat"/>
  <ellipse id="splat_12" cx="191.03" cy="145.03" rx="12.49" ry="6.16" fill="rgb(121,187,205)" fill-opacity="0.730" transform="rotate(89.34 191.03 145.03)" class="splat"/>
  <ellipse id="splat_13" cx="155.96" cy="218.01" rx="12.50" ry="5.80" fill="rgb(151,170,188)" fill-opacity="0.727" transform="rotate(46.59 155.96 218.01)" class="splat"/>
  <ellipse id="splat_14" cx="407.50" cy="456.58" rx="12.50" ry="5.31" fill="rgb(155,81,76)" fill-opacity="0.713" transform="rotate(123.53 407.50 456.58)" class="splat"/>
  <ellipse id="splat_15" cx="105.95" cy="156.95" rx="12.49" ry="4.89" fill="rgb(133,137,147)" fill-opacity="0.729" transform="rotate(166.32 105.95 156.95)" class="splat"/>
  <ellipse id="splat_16" cx="196.95" cy="330.95" rx="12.50" ry="4.66" fill="rgb(86,71,116)" fill-opacity="0.710" transform="rotate(45.33 196.95 330.95)" class="splat"/>
  <ellipse id="splat_17" cx="461.99" cy="264.99" rx="7.51" ry="7.49" fill="rgb(185,164,199)" fill-opacity="0.510" transform="rotate(67.53 461.99 264.99)" class="splat"/>
  <ellipse id="splat_18" cx="102.01" cy="325.01" rx="7.50" ry="7.49" fill="rgb(222,177,65)" fill-opacity="0.510" transform="rotate(135.16 102.01 325.01)" class="splat"/>
  <ellipse id="splat_19" cx="9.01" cy="289.99" rx="7.50" ry="7.49" fill="rgb(216,150,64)" fill-opacity="0.510" transform="rotate(134.98 9.01 289.99)" class="splat"/>
  <ellipse id="splat_20" cx="87.01" cy="296.99" rx="7.50" ry="7.49" fill="rgb(222,155,67)" fill-opacity="0.510" transform="rotate(135.01 87.01 296.99)" class="splat"/>
  <ellipse id="splat_21" cx="466.99" cy="78.99" rx="7.50" ry="7.49" fill="rgb(220,160,213)" fill-opacity="0.510" transform="rotate(45.00 466.99 78.99)" class="splat"/>
  <ellipse id="splat_22" cx="465.99" cy="104.01" rx="7.50" ry="7.49" fill="rgb(218,150,200)" fill-opacity="0.510" transform="rotate(135.00 465.99 104.01)" class="splat"/>
  <ellipse id="splat_23" cx="411.01" cy="178.99" rx="7.50" ry="7.49" fill="rgb(217,131,172)" fill-opacity="0.510" transform="rotate(135.01 411.01 178.99)" class="splat"/>
  <ellipse id="splat_24" cx="208.01" cy="147.01" rx="7.50" ry="7.49" fill="rgb(136,206,227)" fill-opacity="0.490" transform="rotate(135.00 208.01 147.01)" class="splat"/>
  <ellipse id="splat_25" cx="21.99" cy="465.01" rx="7.50" ry="7.49" fill="rgb(221,188,220)" fill-opacity="0.510" transform="rotate(135.01 21.99 465.01)" class="splat"/>
  <ellipse id="splat_26" cx="7.01" cy="350.99" rx="7.50" ry="7.49" fill="rgb(214,151,51)" fill-opacity="0.510" transform="rotate(135.00 7.01 350.99)" class="splat"/>
  <ellipse id="splat_27" cx="286.99" cy="60.99" rx="7.50" ry="7.49" fill="rgb(212,112,156)" fill-opacity="0.510" transform="rotate(135.00 286.99 60.99)" class="splat"/>
  <ellipse id="splat_28" cx="374.01" cy="284.99" rx="7.50" ry="7.49" fill="rgb(175,173,205)" fill-opacity="0.510" transform="rotate(-135.00 374.01 284.99)" class="splat"/>
  <ellipse id="splat_29" cx="337.99" cy="108.99" rx="7.50" ry="7.49" fill="rgb(214,164,135)" fill-opacity="0.510" transform="rotate(-135.00 337.99 108.99)" class="splat"/>
  <ellipse id="splat_30" cx="205.01" cy="170.01" rx="7.50" ry="7.49" fill="rgb(112,193,217)" fill-opacity="0.510" transform="rotate(45.00 205.01 170.01)" class="splat"/>
  <ellipse id="splat_31" cx="416.01" cy="146.01" rx="7.50" ry="7.49" fill="rgb(210,120,162)" fill-opacity="0.510" transform="rotate(-135.00 416.01 146.01)" class="splat"/>
  <ellipse id="splat_32" cx="85.99" cy="441.01" rx="7.50" ry="7.49" fill="rgb(205,174,211)" fill-opacity="0.490" transform="rotate(45.00 85.99 441.01)" class="splat"/>
  <ellipse id="splat_33" cx="192.01" cy="398.99" rx="7.50" ry="7.49" fill="rgb(171,151,194)" fill-opacity="0.490" transform="rotate(135.00 192.01 398.99)" class="splat"/>
  <ellipse id="splat_34" cx="84.99" cy="379.01" rx="7.50" ry="7.49" fill="rgb(223,178,70)" fill-opacity="0.510" transform="rotate(135.00 84.99 379.01)" class="splat"/>
  <ellipse id="splat_35" cx="323.01" cy="213.01" rx="7.50" ry="7.49" fill="rgb(232,207,168)" fill-opacity="0.490" transform="rotate(135.00 323.01 213.01)" class="splat"/>
  <ellipse id="splat_36" cx="423.97" cy="272.97" rx="7.50" ry="7.48" fill="rgb(184,170,204)" fill-opacity="0.513" transform="rotate(144.25 423.97 272.97)" class="splat"/>
  <ellipse id="splat_37" cx="38.99" cy="452.03" rx="7.49" ry="7.48" fill="rgb(220,204,225)" fill-opacity="0.507" transform="rotate(134.99 38.99 452.03)" class="splat"/>
  <ellipse id="splat_38" cx="259.97" cy="110.03" rx="7.50" ry="7.48" fill="rgb(122,189,218)" fill-opacity="0.513" transform="rotate(135.00 259.97 110.03)" class="splat"/>
  <ellipse id="splat_39" cx="168.03" cy="402.03" rx="7.50" ry="7.48" fill="rgb(179,181,203)" fill-opacity="0.507" transform="rotate(135.00 168.03 402.03)" class="splat"/>
  <ellipse id="splat_40" cx="83.97" cy="357.97" rx="7.50" ry="7.48" fill="rgb(218,168,69)" fill-opacity="0.508" transform="rotate(134.99 83.97 357.97)" class="splat"/>
  <ellipse id="splat_41" cx="105.97" cy="255.97" rx="7.50" ry="7.48" fill="rgb(231,183,66)" fill-opacity="0.513" transform="rotate(134.99 105.97 255.97)" class="splat"/>
  <ellipse id="splat_42" cx="94.97" cy="191.03" rx="7.50" ry="7.48" fill="rgb(222,155,122)" fill-opacity="0.513" transform="rotate(135.00 94.97 191.03)" class="splat"/>
  <ellipse id="splat_43" cx="129.97" cy="293.03" rx="7.50" ry="7.48" fill="rgb(226,197,80)" fill-opacity="0.510" transform="rotate(135.00 129.97 293.03)" class="splat"/>
  <ellipse id="splat_44" cx="247.03" cy="42.97" rx="7.50" ry="7.48" fill="rgb(174,167,207)" fill-opacity="0.527" transform="rotate(-135.00 247.03 42.97)" class="splat"/>
  <ellipse id="splat_45" cx="66.03" cy="444.99" rx="7.50" ry="7.48" fill="rgb(219,206,231)" fill-opacity="0.510" transform="rotate(135.00 66.03 444.99)" class="splat"/>
  <ellipse id="splat_46" cx="235.03" cy="63.03" rx="7.50" ry="7.48" fill="rgb(148,189,223)" fill-opacity="0.510" transform="rotate(-135.00 235.03 63.03)" class="splat"/>
  <ellipse id="splat_47" cx="3.03" cy="248.03" rx="7.50" ry="7.48" fill="rgb(226,200,143)" fill-opacity="0.513" transform="rotate(45.00 3.03 248.03)" class="splat"/>
  <ellipse id="splat_48" cx="198.97" cy="75.03" rx="7.50" ry="7.48" fill="rgb(162,206,236)" fill-opacity="0.527" transform="rotate(135.00 198.97 75.03)" class="splat"/>
  <ellipse id="splat_49" cx="115.03" cy="262.03" rx="7.50" ry="7.48" fill="rgb(227,183,78)" fill-opacity="0.530" transform="rotate(135.00 115.03 262.03)" class="splat"/>
  <ellipse id="splat_50" cx="142.03" cy="280.97" rx="7.50" ry="7.48" fill="rgb(216,182,59)" fill-opacity="0.507" transform="rotate(45.00 142.03 280.97)" class="splat"/>
  <ellipse id="splat_51" cx="150.05" cy="167.95" rx="12.49" ry="4.49" fill="rgb(96,93,113)" fill-opacity="0.713" transform="rotate(-163.41 150.05 167.95)" class="splat"/>
  <ellipse id="splat_52" cx="238.05" cy="156.95" rx="12.49" ry="4.36" fill="rgb(127,186,209)" fill-opacity="0.715" transform="rotate(81.36 238.05 156.95)" class="splat"/>
  <ellipse id="splat_53" cx="108.05" cy="113.95" rx="12.50" ry="4.29" fill="rgb(196,147,124)" fill-opacity="0.729" transform="rotate(58.38 108.05 113.95)" class="splat"/>
  <ellipse id="splat_54" cx="313.05" cy="70.95" rx="12.50" ry="4.22" fill="rgb(197,105,139)" fill-opacity="0.702" transform="rotate(62.25 313.05 70.95)" class="splat"/>
  <ellipse id="splat_55" cx="395.03" cy="479.09" rx="12.50" ry="3.84" fill="rgb(150,84,63)" fill-opacity="0.702" transform="rotate(-155.88 395.03 479.09)" class="splat"/>
  <ellipse id="splat_56" cx="218.95" cy="130.95" rx="12.49" ry="3.76" fill="rgb(107,194,190)" fill-opacity="0.718" transform="rotate(78.53 218.95 130.95)" class="splat"/>
  <ellipse id="splat_57" cx="122.95" cy="204.05" rx="12.50" ry="3.50" fill="rgb(166,175,171)" fill-opacity="0.702" transform="rotate(116.44 122.95 204.05)" class="splat"/>
  <ellipse id="splat_58" cx="273.95" cy="221.95" rx="12.49" ry="3.07" fill="rgb(139,142,175)" fill-opacity="0.718" transform="rotate(99.19 273.95 221.95)" class="splat"/>
  <ellipse id="splat_59" cx="226.95" cy="158.05" rx="12.50" ry="2.90" fill="rgb(121,196,215)" fill-opacity="0.709" transform="rotate(58.61 226.95 158.05)" class="splat"/>
  <ellipse id="splat_60" cx="358.97" cy="489.20" rx="12.50" ry="2.63" fill="rgb(140,71,46)" fill-opacity="0.730" transform="rotate(151.25 358.97 489.20)" class="splat"/>
  <ellipse id="splat_61" cx="404.05" cy="443.95" rx="12.50" ry="2.49" fill="rgb(152,83,70)" fill-opacity="0.717" transform="rotate(47.23 404.05 443.95)" class="splat"/>
  <ellipse id="splat_62" cx="334.03" cy="71.95" rx="12.50" ry="2.48" fill="rgb(205,79,131)" fill-opacity="0.713" transform="rotate(68.16 334.03 71.95)" class="splat"/>
  <ellipse id="splat_63" cx="265.95" cy="185.05" rx="12.49" ry="2.44" fill="rgb(126,113,147)" fill-opacity="0.712" transform="rotate(179.50 265.95 185.05)" class="splat"/>
  <ellipse id="splat_64" cx="441.05" cy="446.00" rx="12.49" ry="2.43" fill="rgb(163,97,77)" fill-opacity="0.721" transform="rotate(-178.71 441.05 446.00)" class="splat"/>
  <ellipse id="splat_65" cx="184.95" cy="364.99" rx="12.49" ry="2.43" fill="rgb(118,82,80)" fill-opacity="0.710" transform="rotate(-178.27 184.95 364.99)" class="splat"/>
  <ellipse id="splat_66" cx="133.95" cy="217.05" rx="12.49" ry="2.43" fill="rgb(158,170,182)" fill-opacity="0.727" transform="rotate(93.82 133.95 217.05)" class="splat"/>
  <ellipse id="splat_67" cx="216.95" cy="116.01" rx="12.49" ry="2.43" fill="rgb(70,168,196)" fill-opacity="0.705" transform="rotate(85.65 216.95 116.01)" class="splat"/>
  <ellipse id="splat_68" cx="277.05" cy="151.95" rx="12.49" ry="2.42" fill="rgb(105,92,82)" fill-opacity="0.717" transform="rotate(173.32 277.05 151.95)" class="splat"/>
  <ellipse id="splat_69" cx="66.01" cy="384.97" rx="12.49" ry="2.42" fill="rgb(207,132,61)" fill-opacity="0.721" transform="rotate(-171.12 66.01 384.97)" class="splat"/>
  <ellipse id="splat_70" cx="222.05" cy="97.95" rx="12.49" ry="2.41" fill="rgb(80,142,181)" fill-opacity="0.702" transform="rotate(79.58 222.05 97.95)" class="splat"/>
  <ellipse id="splat_71" cx="32.97" cy="33.05" rx="12.49" ry="2.41" fill="rgb(206,139,107)" fill-opacity="0.715" transform="rotate(167.06 32.97 33.05)" class="splat"/>
  <ellipse id="splat_72" cx="395.55" cy="464.37" rx="12.49" ry="2.41" fill="rgb(150,81,66)" fill-opacity="0.720" transform="rotate(-166.37 395.55 464.37)" class="splat"/>
  <ellipse id="splat_73" cx="226.04" cy="298.05" rx="12.49" ry="2.41" fill="rgb(134,92,118)" fill-opacity="0.720" transform="rotate(165.31 226.04 298.05)" class="splat"/>
  <ellipse id="splat_74" cx="421.05" cy="133.02" rx="12.49" ry="2.40" fill="rgb(208,119,162)" fill-opacity="0.715" transform="rotate(-164.73 421.05 133.02)" class="splat"/>
  <ellipse id="splat_75" cx="409.13" cy="470.92" rx="12.49" ry="2.40" fill="rgb(149,81,59)" fill-opacity="0.718" transform="rotate(105.55 409.13 470.92)" class="splat"/>
  <ellipse id="splat_76" cx="117.95" cy="194.01" rx="12.49" ry="2.40" fill="rgb(219,210,161)" fill-opacity="0.720" transform="rotate(163.16 117.95 194.01)" class="splat"/>
  <ellipse id="splat_77" cx="379.56" cy="460.92" rx="12.49" ry="2.40" fill="rgb(142,64,53)" fill-opacity="0.720" transform="rotate(72.15 379.56 460.92)" class="splat"/>
  <ellipse id="splat_78" cx="257.03" cy="358.05" rx="12.50" ry="2.40" fill="rgb(151,112,156)" fill-opacity="0.707" transform="rotate(-161.59 257.03 358.05)" class="splat"/>
  <ellipse id="splat_79" cx="284.95" cy="165.95" rx="12.50" ry="2.40" fill="rgb(100,73,87)" fill-opacity="0.710" transform="rotate(161.55 284.95 165.95)" class="splat"/>
  <ellipse id="splat_80" cx="368.29" cy="477.42" rx="12.50" ry="2.40" fill="rgb(145,73,63)" fill-opacity="0.702" transform="rotate(-143.45 368.29 477.42)" class="splat"/>
  <ellipse id="splat_81" cx="368.08" cy="460.38" rx="12.50" ry="2.39" fill="rgb(142,61,54)" fill-opacity="0.720" transform="rotate(111.90 368.08 460.38)" class="splat"/>
  <ellipse id="splat_82" cx="295.95" cy="70.97" rx="12.50" ry="2.39" fill="rgb(185,169,198)" fill-opacity="0.718" transform="rotate(113.63 295.95 70.97)" class="splat"/>
  <ellipse id="splat_83" cx="394.13" cy="451.26" rx="12.50" ry="2.39" fill="rgb(151,83,71)" fill-opacity="0.701" transform="rotate(156.35 394.13 451.26)" class="splat"/>
  <ellipse id="splat_84" cx="107.05" cy="112.95" rx="12.50" ry="2.39" fill="rgb(199,152,122)" fill-opacity="0.712" transform="rotate(66.20 107.05 112.95)" class="splat"/>
  <ellipse id="splat_85" cx="297.05" cy="71.05" rx="12.50" ry="2.39" fill="rgb(188,160,196)" fill-opacity="0.713" transform="rotate(113.99 297.05 71.05)" class="splat"/>
  <ellipse id="splat_86" cx="162.05" cy="492.95" rx="12.50" ry="2.39" fill="rgb(131,49,57)" fill-opacity="0.718" transform="rotate(115.31 162.05 492.95)" class="splat"/>
  <ellipse id="splat_87" cx="330.98" cy="215.98" rx="12.50" ry="2.38" fill="rgb(229,202,174)" fill-opacity="0.718" transform="rotate(119.20 330.98 215.98)" class="splat"/>
  <ellipse id="splat_88" cx="91.95" cy="128.95" rx="12.50" ry="2.38" fill="rgb(205,157,163)" fill-opacity="0.721" transform="rotate(-150.21 91.95 128.95)" class="splat"/>
  <ellipse id="splat_89" cx="144.98" cy="404.01" rx="12.50" ry="2.38" fill="rgb(137,147,189)" fill-opacity="0.729" transform="rotate(-144.71 144.98 404.01)" class="splat"/>
  <ellipse id="splat_90" cx="420.95" cy="203.97" rx="12.50" ry="2.37" fill="rgb(202,100,124)" fill-opacity="0.722" transform="rotate(-142.79 420.95 203.97)" class="splat"/>
  <ellipse id="splat_91" cx="364.05" cy="448.73" rx="12.50" ry="2.37" fill="rgb(139,59,57)" fill-opacity="0.720" transform="rotate(-141.68 364.05 448.73)" class="splat"/>
  <ellipse id="splat_92" cx="377.07" cy="471.78" rx="12.50" ry="2.37" fill="rgb(146,74,52)" fill-opacity="0.720" transform="rotate(51.52 377.07 471.78)" class="splat"/>
  <ellipse id="splat_93" cx="387.05" cy="327.96" rx="12.50" ry="2.37" fill="rgb(162,101,131)" fill-opacity="0.721" transform="rotate(-141.38 387.05 327.96)" class="splat"/>
  <ellipse id="splat_94" cx="1.05" cy="230.95" rx="12.50" ry="2.37" fill="rgb(210,106,83)" fill-opacity="0.729" transform="rotate(134.94 1.05 230.95)" class="splat"/>
  <ellipse id="splat_95" cx="118.05" cy="191.05" rx="12.50" ry="2.37" fill="rgb(183,169,123)" fill-opacity="0.721" transform="rotate(134.34 118.05 191.05)" class="splat"/>

</svg>
